<?xml version="1.0" encoding="UTF-8" standalone="no"?>
<!DOCTYPE svg PUBLIC "-//W3C//DTD SVG 1.1//EN" "http://www.w3.org/Graphics/SVG/1.1/DTD/svg11.dtd">
<svg width="100%" height="100%" viewBox="0 0 1000 1000" version="1.1" xmlns="http://www.w3.org/2000/svg" xmlns:xlink="http://www.w3.org/1999/xlink" xml:space="preserve" xmlns:serif="http://www.serif.com/" style="fill-rule:evenodd;clip-rule:evenodd;stroke-linejoin:round;stroke-miterlimit:2;">
    <g>
        <path d="M964.5,116.5C964.5,116.5 935.7,129.7 915.7,137.1C895.8,144.5 869,151.9 869,151.9C869,151.9 763.5,21.9 610.1,98.9C456.7,175.9 506.3,349.7 506.3,349.7C506.3,349.7 375.4,354.2 220.5,275.7C65.6,197.1 28,126.1 28,126.1C28,126.1 4,168.4 14.5,247C25,325.6 99,426.6 99,426.6L10,390.5C10,390.5 14.5,440.4 49.1,491.7C83.7,543.1 205.5,608 205.5,608L89.7,609.5C89.7,609.5 100.2,633.7 142.3,674.5C184.4,715.3 301.7,751.5 301.7,751.5C301.7,751.5 219.2,809.5 161.8,831.6C104.4,853.6 14.4,858.8 14.4,858.8C14.4,858.8 148.4,942.6 354.3,922.3C560.1,902 701.8,805.3 811.5,644.3C921.2,483.3 910.8,274.2 910.8,274.2C910.8,274.2 922.8,260.3 951.9,233.5C981,206.7 990,193.5 990,193.5L917.2,201.3L964.5,116.5Z" style="fill:#fde000;fill-rule:nonzero;"/>
    </g>
</svg>
